<?xml version="1.0" encoding="utf-8"?>
<!-- Generator: Adobe Illustrator 16.0.0, SVG Export Plug-In . SVG Version: 6.00 Build 0)  -->
<!DOCTYPE svg PUBLIC "-//W3C//DTD SVG 1.1//EN" "http://www.w3.org/Graphics/SVG/1.1/DTD/svg11.dtd">
<svg version="1.1" id="圖層_1" xmlns="http://www.w3.org/2000/svg" xmlns:xlink="http://www.w3.org/1999/xlink" x="0px" y="0px"
	 width="24px" height="18.771px" viewBox="0 0 24 18.771" enable-background="new 0 0 24 18.771" xml:space="preserve">
<path fill-rule="evenodd" clip-rule="evenodd" d="M4.21,13.938c0-0.276,0.238-0.5,0.534-0.5h4.138c0.295,0,0.534,0.224,0.534,0.5
	l0,0c0,0.276-0.239,0.5-0.534,0.5H4.744C4.448,14.438,4.21,14.214,4.21,13.938L4.21,13.938z"/>
<path fill-rule="evenodd" clip-rule="evenodd" d="M9.344,11.938c0,0.276-0.238,0.5-0.534,0.5H6.534c-0.296,0-0.534-0.224-0.534-0.5
	l0,0c0-0.276,0.238-0.5,0.534-0.5H8.81C9.105,11.438,9.344,11.661,9.344,11.938L9.344,11.938z"/>
<circle fill-rule="evenodd" clip-rule="evenodd" cx="2.721" cy="13.937" r="0.583"/>
<path fill-rule="evenodd" clip-rule="evenodd" d="M15.431,15.718c0,0.446-0.362,0.808-0.808,0.808l0,0
	c-0.446,0-0.809-0.361-0.809-0.808l0,0c0-0.446,0.362-0.808,0.809-0.808l0,0C15.068,14.91,15.431,15.271,15.431,15.718
	L15.431,15.718z"/>
<path fill-rule="evenodd" clip-rule="evenodd" fill="none" stroke="#000000" stroke-miterlimit="10" d="M20.061,14.475
	c0,1.716-1.392,3.107-3.107,3.107h-4.661c-1.716,0-3.107-1.392-3.107-3.107V4.843c0-1.717,1.391-3.107,3.107-3.107h4.661
	c1.716,0,3.107,1.391,3.107,3.107V14.475z"/>
<path fill-rule="evenodd" clip-rule="evenodd" d="M16.519,3.195c0,0.155-0.126,0.28-0.28,0.28h-3.231c-0.154,0-0.28-0.125-0.28-0.28
	l0,0c0-0.154,0.125-0.279,0.28-0.279h3.231C16.393,2.916,16.519,3.041,16.519,3.195L16.519,3.195z"/>
<rect x="10.77" y="4.625" fill-rule="evenodd" clip-rule="evenodd" fill="none" stroke="#000000" stroke-miterlimit="10" width="7.706" height="9.073"/>
</svg>
