<?xml version="1.0" encoding="utf-8"?>
<!-- Generator: Adobe Illustrator 16.0.0, SVG Export Plug-In . SVG Version: 6.00 Build 0)  -->
<!DOCTYPE svg PUBLIC "-//W3C//DTD SVG 1.1//EN" "http://www.w3.org/Graphics/SVG/1.1/DTD/svg11.dtd">
<svg version="1.1" id="圖層_1" xmlns="http://www.w3.org/2000/svg" xmlns:xlink="http://www.w3.org/1999/xlink" x="0px" y="0px"
	 width="586px" height="224px" viewBox="0 0 586 224" enable-background="new 0 0 586 224" xml:space="preserve">
<g>
	<path fill="#FFC600" d="M6.645,39.829c0-6.706,0.274-11.521,0.823-14.447c0.549-2.926,1.473-5.465,2.774-7.62
		c2.275-3.78,5.628-6.553,10.058-8.321C24.729,7.673,30.581,6.79,37.855,6.79c5.08,0,10.119,0.569,15.118,1.707
		c4.999,1.138,9.936,2.845,14.813,5.121v26.212H47.548V38c0-4.226-0.803-7.366-2.408-9.418c-1.606-2.052-4.034-3.079-7.285-3.079
		c-3.496,0-6.015,1.057-7.559,3.17c-1.545,2.113-2.316,5.588-2.316,10.424v31.821c0,4.876,0.771,8.372,2.316,10.485
		c1.544,2.114,4.063,3.17,7.559,3.17c3.414,0,5.883-1.046,7.407-3.139c1.524-2.093,2.286-5.598,2.286-10.516v-6.583h20.238v31.82
		c-4.471,2.316-9.276,4.084-14.417,5.304c-5.142,1.219-10.313,1.829-15.514,1.829c-6.583,0-12-0.731-16.246-2.194
		c-4.247-1.463-7.589-3.739-10.028-6.828c-1.789-2.275-3.058-5.019-3.81-8.229c-0.752-3.21-1.128-8.493-1.128-15.849V39.829z"/>
	<path fill="#FFC600" d="M107.836,76.161c0,3.862,0.325,6.331,0.976,7.407c0.649,1.077,1.869,1.819,3.657,2.225v15.605H81.624
		V85.792c1.829-0.406,3.079-1.168,3.749-2.286c0.67-1.117,1.006-3.566,1.006-7.346V33.246c0-3.779-0.335-6.228-1.006-7.346
		c-0.67-1.117-1.92-1.879-3.749-2.286V8.618h30.845v14.996c-1.748,0.407-2.957,1.158-3.627,2.255s-1.006,3.557-1.006,7.376V45.62
		h19.751V33.246c0-3.86-0.326-6.329-0.976-7.406c-0.65-1.077-1.87-1.818-3.657-2.225V8.618H153.8v14.996
		c-1.789,0.407-3.028,1.179-3.719,2.316c-0.691,1.138-1.036,3.577-1.036,7.315v42.915c0,3.78,0.335,6.229,1.006,7.346
		c0.67,1.118,1.92,1.88,3.749,2.286v15.605h-30.845V85.792c1.788-0.406,3.007-1.148,3.657-2.225c0.65-1.076,0.976-3.545,0.976-7.407
		V61.348h-19.751V76.161z"/>
	<path fill="#FFC600" d="M165.809,23.614V8.618h31.089v14.996c-1.748,0.609-2.978,1.606-3.688,2.987
		c-0.711,1.382-1.067,4.125-1.067,8.229v35.966c0,4.877,0.771,8.393,2.316,10.546c1.544,2.155,4.023,3.231,7.437,3.231
		s5.953-1.107,7.62-3.322c1.666-2.214,2.499-5.578,2.499-10.089V32.209c0-2.722-0.366-4.714-1.097-5.974
		c-0.731-1.259-1.992-2.134-3.779-2.621V8.618h28.102v14.996c-1.87,0.407-3.17,1.25-3.901,2.53c-0.731,1.28-1.097,3.729-1.097,7.345
		v38.465c0,5.974-0.438,10.526-1.311,13.655c-0.875,3.13-2.347,5.934-4.42,8.413c-2.52,2.967-5.771,5.253-9.753,6.858
		c-3.983,1.605-8.433,2.408-13.35,2.408c-10.892,0-18.694-2.509-23.408-7.528c-4.715-5.019-7.071-13.461-7.071-25.329V33.002
		c0-3.292-0.346-5.496-1.036-6.614C169.202,25.271,167.84,24.346,165.809,23.614z"/>
	<path fill="#FFC600" d="M247.189,101.398l0.061-15.605c1.788-0.244,3.018-0.955,3.688-2.134c0.67-1.178,1.006-3.596,1.006-7.254
		V31.6c0-2.722-0.346-4.633-1.036-5.73c-0.692-1.097-1.911-1.849-3.658-2.255l-0.061-14.996h24.262l23.347,52.181V33.002
		c0-3.292-0.376-5.598-1.127-6.919c-0.752-1.32-2.042-2.143-3.871-2.469V8.618h29.443v14.996c-1.91,0.569-3.221,1.443-3.932,2.621
		c-0.711,1.179-1.066,3.759-1.066,7.742v67.421h-19.446l-23.347-52.668v27.675c0,3.455,0.345,5.812,1.036,7.071
		c0.691,1.26,1.951,2.033,3.78,2.316l0.061,15.605H247.189z"/>
	<path fill="#FFC600" d="M428.543,30.137v46.816c0,3.414,0.324,5.669,0.975,6.767s1.91,1.789,3.78,2.073v15.605h-26.884V85.792
		c1.747,0,3.018-0.66,3.811-1.981c0.792-1.32,1.188-3.403,1.188-6.248V32.88c0-2.966-0.376-5.121-1.128-6.461
		c-0.752-1.341-2.042-2.235-3.871-2.683V8.618h32.979l12.009,52.852l11.46-52.852h33.467v15.118
		c-1.911,0.488-3.222,1.26-3.932,2.316c-0.712,1.058-1.067,3.455-1.067,7.193v42.062c0,4.105,0.355,6.807,1.067,8.107
		c0.71,1.301,2.021,2.094,3.932,2.377v15.605H465.85V85.792c1.747-0.325,2.956-1.158,3.627-2.5c0.671-1.341,1.006-4.002,1.006-7.985
		V31.6l-16.337,69.798h-8.778L428.543,30.137z"/>
	<path fill="#FFC600" d="M508.033,23.614V8.618h31.089v14.996c-1.748,0.609-2.978,1.606-3.688,2.987
		c-0.711,1.382-1.066,4.125-1.066,8.229v35.966c0,4.877,0.771,8.393,2.316,10.546c1.544,2.155,4.023,3.231,7.438,3.231
		c3.413,0,5.952-1.107,7.619-3.322c1.666-2.214,2.5-5.578,2.5-10.089V32.209c0-2.722-0.366-4.714-1.098-5.974
		c-0.731-1.259-1.991-2.134-3.779-2.621V8.618h28.102v14.996c-1.869,0.407-3.169,1.25-3.901,2.53
		c-0.731,1.28-1.097,3.729-1.097,7.345v38.465c0,5.974-0.438,10.526-1.311,13.655c-0.875,3.13-2.347,5.934-4.42,8.413
		c-2.521,2.967-5.771,5.253-9.753,6.858c-3.983,1.605-8.434,2.408-13.351,2.408c-10.892,0-18.694-2.509-23.408-7.528
		c-4.715-5.019-7.071-13.461-7.071-25.329V33.002c0-3.292-0.346-5.496-1.036-6.614C511.426,25.271,510.064,24.346,508.033,23.614z"
		/>
</g>
<g>
	<g>
		<path fill="#FFC600" d="M6.645,207.091v-23.226h20.848v1.829c0,4.511,0.884,7.823,2.651,9.936c1.768,2.114,4.501,3.17,8.199,3.17
			c2.885,0,5.222-0.893,7.01-2.682c1.788-1.788,2.682-4.124,2.682-7.011c0-2.804-0.945-5.16-2.834-7.071
			c-1.89-1.909-5.212-3.758-9.967-5.547c-1.057-0.406-2.581-0.976-4.572-1.707c-7.234-2.601-12.375-5.079-15.423-7.437
			c-3.13-2.438-5.416-5.172-6.858-8.199c-1.443-3.027-2.164-6.654-2.164-10.882c0-8.33,2.813-14.904,8.443-19.72
			c5.628-4.815,13.259-7.224,22.89-7.224c5.648,0,10.982,0.833,16.002,2.499c5.019,1.667,9.804,4.206,14.356,7.62v21.823H47.427
			v-1.646c0-3.982-0.854-7.011-2.561-9.083c-1.707-2.073-4.186-3.109-7.437-3.109c-3.048,0-5.486,0.783-7.315,2.347
			c-1.829,1.565-2.743,3.648-2.743,6.249c0,2.438,1.026,4.48,3.079,6.126c2.052,1.646,6.756,3.729,14.112,6.248
			c9.671,3.292,16.255,6.991,19.751,11.095c3.495,4.105,5.242,9.855,5.242,17.252c0,8.818-2.814,15.87-8.443,21.152
			c-5.629,5.283-13.218,7.925-22.768,7.925c-6.056,0-11.775-0.914-17.16-2.743C15.798,213.247,10.952,210.586,6.645,207.091z"/>
		<path fill="#FFC600" d="M104.362,140.768c-3.008,0.081-5.172,0.944-6.492,2.59c-1.321,1.646-1.981,4.319-1.981,8.017v9.388H78.638
			V123.15h72.907v37.611h-17.069v-9.388c0-3.738-0.67-6.421-2.011-8.047c-1.341-1.625-3.536-2.479-6.584-2.56l-0.061,49.925
			c0,3.861,0.325,6.33,0.975,7.407c0.649,1.077,1.869,1.818,3.658,2.225v15.605H99.608v-15.605c1.829-0.406,3.078-1.168,3.749-2.286
			c0.671-1.117,1.006-3.566,1.006-7.346V140.768z"/>
		<path fill="#FFC600" d="M160.932,138.146V123.15h31.089v14.995c-1.748,0.61-2.978,1.606-3.688,2.987
			c-0.711,1.382-1.067,4.125-1.067,8.229v35.966c0,4.877,0.771,8.393,2.316,10.546c1.544,2.154,4.023,3.23,7.437,3.23
			s5.953-1.106,7.62-3.322c1.666-2.214,2.499-5.577,2.499-10.088v-38.953c0-2.723-0.366-4.714-1.097-5.974s-1.992-2.134-3.779-2.622
			V123.15h28.102v14.995c-1.87,0.407-3.17,1.25-3.901,2.53s-1.097,3.729-1.097,7.346v38.465c0,5.974-0.438,10.526-1.311,13.655
			c-0.875,3.13-2.347,5.934-4.42,8.412c-2.52,2.967-5.771,5.253-9.753,6.857c-3.983,1.605-8.433,2.408-13.35,2.408
			c-10.892,0-18.694-2.509-23.408-7.528c-4.715-5.019-7.071-13.462-7.071-25.328v-37.43c0-3.291-0.346-5.495-1.036-6.613
			C164.325,139.802,162.964,138.877,160.932,138.146z"/>
		<path fill="#FFC600" d="M273.158,215.93h-30.845v-15.605c1.829-0.406,3.079-1.168,3.749-2.286c0.67-1.117,1.006-3.566,1.006-7.346
			v-42.915c0-3.779-0.335-6.228-1.006-7.346c-0.67-1.117-1.92-1.879-3.749-2.286V123.15h30.845c13.736,0,23.145,2.51,28.225,7.528
			c5.08,5.02,7.619,14.173,7.619,27.462v22.188c0,13.981-2.418,23.409-7.254,28.285C296.912,213.491,287.382,215.93,273.158,215.93z
			 M268.525,197.337h6.279c5.08,0,8.473-0.832,10.18-2.499c1.707-1.666,2.561-5.16,2.561-10.485v-27.979
			c0-6.178-0.823-10.221-2.469-12.131c-1.646-1.91-4.704-2.865-9.174-2.865h-1.219l-6.157,0.122V197.337z"/>
		<path fill="#FFC600" d="M348.504,190.692c0,3.861,0.324,6.33,0.975,7.407c0.649,1.077,1.849,1.818,3.597,2.225v15.605h-30.784
			v-15.605c1.788-0.406,3.018-1.168,3.688-2.286c0.67-1.117,1.006-3.566,1.006-7.346v-42.915c0-3.779-0.336-6.228-1.006-7.346
			c-0.671-1.117-1.9-1.879-3.688-2.286V123.15h30.784v14.995c-1.748,0.407-2.947,1.158-3.597,2.256
			c-0.65,1.098-0.975,3.557-0.975,7.376V190.692z"/>
		<path fill="#FFC600" d="M366.486,154.361c0-7.519,0.375-12.842,1.128-15.972c0.751-3.129,2.021-5.831,3.81-8.107
			c2.438-3.048,5.781-5.304,10.028-6.767c4.246-1.463,9.662-2.194,16.245-2.194c6.502,0,11.847,0.722,16.032,2.164
			s7.538,3.709,10.059,6.797c1.788,2.276,3.058,5.029,3.81,8.26s1.128,8.504,1.128,15.819v30.357c0,7.355-0.376,12.64-1.128,15.85
			c-0.752,3.211-2.021,5.954-3.81,8.229c-2.521,3.089-5.873,5.364-10.059,6.827s-9.53,2.194-16.032,2.194
			c-6.583,0-11.999-0.731-16.245-2.194c-4.247-1.463-7.59-3.738-10.028-6.827c-1.788-2.275-3.059-4.969-3.81-8.077
			c-0.753-3.109-1.128-8.443-1.128-16.002V154.361z M387.822,153.63v31.82c0,4.877,0.771,8.372,2.316,10.485
			c1.544,2.113,4.063,3.169,7.559,3.169c3.414,0,5.883-1.045,7.406-3.139c1.524-2.093,2.286-5.598,2.286-10.516v-31.82
			c0-4.877-0.762-8.361-2.286-10.455c-1.523-2.093-3.992-3.14-7.406-3.14c-3.495,0-6.015,1.058-7.559,3.17
			C388.594,145.319,387.822,148.794,387.822,153.63z"/>
	</g>
</g>
<g>
	<path fill="#FFC600" d="M360.913,16.223l8.964,26.893h26.296l-20.842,15.539l9.562,28.088l-23.979-17.555l-24.204,17.555
		l9.563-28.088l-20.618-15.539h25.996L360.913,16.223z"/>
</g>
</svg>
