<?xml version="1.0" encoding="utf-8"?>
<!-- Generator: Adobe Illustrator 16.0.0, SVG Export Plug-In . SVG Version: 6.00 Build 0)  -->
<!DOCTYPE svg PUBLIC "-//W3C//DTD SVG 1.1//EN" "http://www.w3.org/Graphics/SVG/1.1/DTD/svg11.dtd">
<svg version="1.1" id="圖層_1" xmlns="http://www.w3.org/2000/svg" xmlns:xlink="http://www.w3.org/1999/xlink" x="0px" y="0px"
	 width="178px" height="16px" viewBox="0 0 178 16" enable-background="new 0 0 178 16" xml:space="preserve">
<g>
	<g>
		<linearGradient id="SVGID_1_" gradientUnits="userSpaceOnUse" x1="0.7949" y1="8.4873" x2="177.7178" y2="8.4873">
			<stop  offset="0" style="stop-color:#FFC600"/>
			<stop  offset="1" style="stop-color:#FFC600"/>
		</linearGradient>
		<path fill="url(#SVGID_1_)" d="M165.072,14.996c-3.463,0-5.142-3.19-6.765-6.276c-1.554-2.953-3.021-5.742-5.88-5.742
			c-2.857,0-4.323,2.789-5.876,5.742c-1.622,3.086-3.3,6.276-6.761,6.276c-3.462,0-5.14-3.19-6.763-6.276
			c-1.553-2.953-3.02-5.742-5.878-5.742c-2.857,0-4.323,2.789-5.876,5.742c-1.622,3.086-3.3,6.276-6.761,6.276
			c-3.46,0-5.138-3.19-6.759-6.276c-1.552-2.953-3.018-5.742-5.874-5.742c-2.857,0-4.323,2.789-5.876,5.742
			c-1.622,3.086-3.3,6.276-6.761,6.276c-3.461,0-5.139-3.19-6.761-6.276c-1.553-2.953-3.019-5.742-5.876-5.742
			s-4.323,2.789-5.875,5.742c-1.622,3.086-3.299,6.276-6.76,6.276s-5.139-3.19-6.761-6.276c-1.553-2.953-3.019-5.742-5.876-5.742
			c-2.857,0-4.323,2.789-5.875,5.742c-1.622,3.086-3.299,6.276-6.76,6.276c-3.46,0-5.138-3.19-6.759-6.276
			c-1.552-2.953-3.018-5.742-5.875-5.742c-2.856,0-4.322,2.789-5.875,5.742c-1.622,3.086-3.299,6.276-6.759,6.276
			c-3.461,0-5.138-3.19-6.76-6.276C5.118,5.767,3.652,2.978,0.795,2.978v-1c3.461,0,5.138,3.191,6.76,6.276
			c1.552,2.953,3.019,5.742,5.875,5.742c2.856,0,4.322-2.789,5.875-5.742c1.622-3.085,3.299-6.276,6.759-6.276
			c3.461,0,5.138,3.191,6.76,6.276c1.552,2.953,3.018,5.742,5.875,5.742c2.857,0,4.323-2.789,5.875-5.742
			c1.622-3.085,3.299-6.276,6.76-6.276c3.461,0,5.139,3.191,6.761,6.276c1.553,2.953,3.019,5.742,5.876,5.742
			s4.323-2.789,5.875-5.742c1.622-3.085,3.299-6.276,6.76-6.276c3.461,0,5.139,3.191,6.761,6.276
			c1.553,2.953,3.019,5.742,5.876,5.742c2.857,0,4.323-2.789,5.876-5.742c1.622-3.085,3.3-6.276,6.761-6.276
			c3.46,0,5.138,3.191,6.759,6.276c1.552,2.953,3.018,5.742,5.874,5.742c2.857,0,4.323-2.789,5.876-5.742
			c1.622-3.085,3.3-6.276,6.761-6.276c3.462,0,5.14,3.191,6.763,6.276c1.553,2.953,3.02,5.742,5.878,5.742
			c2.857,0,4.323-2.789,5.876-5.742c1.622-3.085,3.3-6.276,6.761-6.276c3.463,0,5.142,3.19,6.765,6.276
			c1.554,2.953,3.021,5.742,5.88,5.742s4.326-2.789,5.88-5.742c1.623-3.085,3.302-6.276,6.766-6.276v1
			c-2.859,0-4.327,2.789-5.881,5.742C170.214,11.806,168.535,14.996,165.072,14.996z"/>
	</g>
	<g>
		<linearGradient id="SVGID_2_" gradientUnits="userSpaceOnUse" x1="0.7949" y1="8.4873" x2="177.7178" y2="8.4873">
			<stop  offset="0" style="stop-color:#FFC600"/>
			<stop  offset="1" style="stop-color:#FFC600"/>
		</linearGradient>
		<path fill="url(#SVGID_2_)" d="M165.072,15.496c-3.765,0-5.594-3.477-7.207-6.543c-1.481-2.815-2.88-5.475-5.438-5.475
			c-2.555,0-3.953,2.659-5.434,5.475c-1.612,3.067-3.439,6.543-7.203,6.543s-5.593-3.477-7.205-6.543
			c-1.48-2.815-2.879-5.475-5.436-5.475c-2.555,0-3.953,2.659-5.434,5.475c-1.612,3.067-3.439,6.543-7.203,6.543
			c-3.763,0-5.59-3.477-7.201-6.544c-1.48-2.815-2.878-5.474-5.432-5.474c-2.555,0-3.953,2.659-5.434,5.475
			c-1.612,3.067-3.439,6.543-7.203,6.543c-3.763,0-5.591-3.477-7.204-6.543c-1.48-2.815-2.878-5.475-5.433-5.475
			c-2.555,0-3.953,2.659-5.433,5.474c-1.613,3.067-3.44,6.544-7.203,6.544s-5.591-3.477-7.204-6.543
			c-1.48-2.815-2.878-5.475-5.434-5.475c-2.555,0-3.953,2.659-5.433,5.474c-1.613,3.067-3.44,6.544-7.203,6.544
			c-3.763,0-5.59-3.477-7.202-6.543c-1.479-2.815-2.877-5.475-5.432-5.475c-2.554,0-3.952,2.659-5.432,5.474
			c-1.612,3.067-3.439,6.544-7.202,6.544c-3.763,0-5.591-3.477-7.203-6.544C4.748,6.137,3.35,3.478,0.795,3.478v-2
			c3.763,0,5.59,3.477,7.203,6.544c1.48,2.815,2.878,5.474,5.433,5.474c2.554,0,3.952-2.659,5.432-5.474
			c1.612-3.067,3.439-6.544,7.202-6.544s5.59,3.477,7.203,6.544c1.479,2.815,2.877,5.474,5.432,5.474
			c2.555,0,3.953-2.659,5.433-5.474c1.612-3.067,3.44-6.544,7.203-6.544c3.764,0,5.591,3.477,7.204,6.544
			c1.48,2.815,2.878,5.474,5.433,5.474c2.555,0,3.953-2.659,5.433-5.474c1.613-3.067,3.44-6.544,7.203-6.544
			s5.591,3.477,7.204,6.543c1.48,2.815,2.878,5.475,5.433,5.475c2.555,0,3.953-2.659,5.434-5.475
			c1.612-3.067,3.439-6.543,7.203-6.543c3.763,0,5.59,3.477,7.201,6.544c1.48,2.815,2.878,5.474,5.432,5.474
			c2.555,0,3.953-2.659,5.434-5.475c1.612-3.067,3.439-6.543,7.203-6.543s5.593,3.477,7.205,6.543
			c1.48,2.815,2.879,5.475,5.436,5.475c2.555,0,3.953-2.659,5.434-5.475c1.612-3.067,3.439-6.543,7.203-6.543
			c3.765,0,5.594,3.477,7.207,6.543c1.481,2.815,2.88,5.475,5.438,5.475s3.956-2.659,5.438-5.474
			c1.613-3.067,3.442-6.544,7.208-6.544v2c-2.558,0-3.957,2.659-5.438,5.475C170.666,12.02,168.837,15.496,165.072,15.496z"/>
	</g>
</g>
</svg>
