<?xml version="1.0" encoding="utf-8"?>
<!-- Generator: Adobe Illustrator 16.0.0, SVG Export Plug-In . SVG Version: 6.00 Build 0)  -->
<!DOCTYPE svg PUBLIC "-//W3C//DTD SVG 1.1//EN" "http://www.w3.org/Graphics/SVG/1.1/DTD/svg11.dtd">
<svg version="1.1" id="圖層_1" xmlns="http://www.w3.org/2000/svg" xmlns:xlink="http://www.w3.org/1999/xlink" x="0px" y="0px"
	 width="87px" height="110px" viewBox="0 0 87 110" enable-background="new 0 0 87 110" xml:space="preserve">
<g>
	<g>
		<g>
			<path fill="#231815" d="M66.727,94.1c-0.129,0-0.263-0.02-0.392-0.055l-13.487-3.807c-0.449-0.127-0.811-0.463-0.969-0.906
				l-9.413-26.176c-0.19-0.529-0.058-1.119,0.338-1.514c0.397-0.398,0.99-0.525,1.514-0.338l26.177,9.414
				c0.449,0.16,0.787,0.531,0.909,0.992L75.011,85.4c0.131,0.498-0.013,1.027-0.376,1.393l-6.884,6.883
				C67.478,93.949,67.107,94.1,66.727,94.1z M54.352,87.654l11.953,3.373L72,85.334l-3.203-12.148l-22.565-8.117L54.352,87.654z"/>
		</g>
	</g>
	<g>
		<g>
			<path fill="#231815" d="M67.791,100.389L67.791,100.389c-0.385,0-0.752-0.152-1.024-0.424l-3.466-3.469
				c-0.564-0.564-0.564-1.48,0-2.047l12.122-12.123c0.272-0.27,0.64-0.422,1.024-0.422l0,0c0.385,0,0.751,0.152,1.022,0.422
				l3.465,3.469c0.566,0.566,0.566,1.48,0,2.047L68.815,99.965C68.542,100.236,68.176,100.389,67.791,100.389z M66.371,95.473
				l1.42,1.422L77.867,86.82l-1.42-1.424L66.371,95.473z"/>
		</g>
	</g>
	<g>
		<g>
			<line fill="#FFFFFF" x1="43.828" y1="62.666" x2="58.496" y2="77.334"/>
		</g>
		<g>
			<path fill="#231815" d="M58.496,78.781c-0.37,0-0.742-0.139-1.022-0.424l-14.67-14.668c-0.564-0.566-0.564-1.48,0-2.047
				c0.566-0.564,1.482-0.564,2.049,0l14.667,14.67c0.565,0.564,0.565,1.48,0,2.045C59.237,78.643,58.867,78.781,58.496,78.781z"/>
		</g>
	</g>
	<g>
		<g>
			<circle fill="#FFFFFF" cx="58.768" cy="77.606" r="2.242"/>
		</g>
		<g>
			<path fill="#231815" d="M58.768,81.295c-0.986,0-1.912-0.383-2.609-1.08c-1.437-1.439-1.437-3.777,0-5.215
				c1.396-1.396,3.821-1.395,5.22-0.002c0.697,0.695,1.082,1.623,1.082,2.607c0,0.986-0.385,1.914-1.082,2.611
				C60.677,80.912,59.755,81.295,58.768,81.295z M58.768,76.813c-0.212,0-0.413,0.082-0.563,0.232c-0.307,0.311-0.307,0.813,0,1.123
				c0.301,0.299,0.825,0.299,1.125,0c0.149-0.152,0.234-0.35,0.234-0.563c0-0.211-0.085-0.408-0.234-0.559
				C59.182,76.895,58.979,76.813,58.768,76.813z"/>
		</g>
	</g>
</g>
<path fill="none" stroke="#231815" stroke-width="2" stroke-miterlimit="10" d="M15,11.5c0,0-9,16.5,8,25c0,0,24,8,19,22"/>
</svg>
