<?xml version="1.0" encoding="utf-8"?>
<!-- Generator: Adobe Illustrator 16.0.0, SVG Export Plug-In . SVG Version: 6.00 Build 0)  -->
<!DOCTYPE svg PUBLIC "-//W3C//DTD SVG 1.1//EN" "http://www.w3.org/Graphics/SVG/1.1/DTD/svg11.dtd">
<svg version="1.1" id="圖層_1" xmlns="http://www.w3.org/2000/svg" xmlns:xlink="http://www.w3.org/1999/xlink" x="0px" y="0px"
	 width="108.975px" height="150px" viewBox="0 0 108.975 150" enable-background="new 0 0 108.975 150" xml:space="preserve">
<path fill="none" stroke="#FFFFFF" stroke-width="4" stroke-miterlimit="10" d="M37.303,31.39c0,0,0.175-6.649,7-3.325l37.8,22.051
	c0,0,7.176,4.55-0.526,8.576l-36.75,21.874c0,0-7.524,4.376-7.524-4.724V31.39z"/>
<g>
	<path fill="none" stroke="#FFFFFF" stroke-width="4" stroke-miterlimit="10" d="M105.435,54.376
		c0-27.864-22.588-50.454-50.453-50.454c-27.865,0-50.454,22.589-50.454,50.454c0,19.841,11.461,36.988,28.119,45.226v26.13
		c0,3.303,2.677,5.98,5.981,5.98c3.303,0,5.982-2.678,5.982-5.98v-21.971c0.985,0.219,2.988,0.602,5.721,0.833v10.215
		c0,3.302,2.679,5.981,5.982,5.981c3.303,0,5.981-2.68,5.981-5.981v-10.529c0.382-0.054,0.767-0.11,1.154-0.172
		c1.548-0.262,3.07-0.599,4.568-0.997v15.6c0,3.302,2.678,5.981,5.982,5.981c3.303,0,5.981-2.68,5.981-5.981V98.193
		C95.185,89.507,105.435,73.142,105.435,54.376z"/>
	<circle fill="none" stroke="#FFFFFF" stroke-width="4" stroke-miterlimit="10" cx="56.313" cy="135.614" r="7.021"/>
</g>
</svg>
