<?xml version="1.0" encoding="utf-8"?>
<!-- Generator: Adobe Illustrator 16.0.0, SVG Export Plug-In . SVG Version: 6.00 Build 0)  -->
<!DOCTYPE svg PUBLIC "-//W3C//DTD SVG 1.1//EN" "http://www.w3.org/Graphics/SVG/1.1/DTD/svg11.dtd">
<svg version="1.1" id="圖層_1" xmlns="http://www.w3.org/2000/svg" xmlns:xlink="http://www.w3.org/1999/xlink" x="0px" y="0px"
	 width="24px" height="16.375px" viewBox="0 0 24 16.375" enable-background="new 0 0 24 16.375" xml:space="preserve">
<path fill-rule="evenodd" clip-rule="evenodd" d="M6.094,7c0,0.276-0.227,0.5-0.509,0.5H3.547C3.266,7.5,3.038,7.276,3.038,7l0,0
	c0-0.276,0.228-0.5,0.509-0.5h2.038C5.867,6.5,6.094,6.724,6.094,7L6.094,7z"/>
<path fill-rule="evenodd" clip-rule="evenodd" d="M6.094,9c0,0.276-0.227,0.5-0.509,0.5H1.509C1.227,9.5,1,9.276,1,9l0,0
	c0-0.276,0.227-0.5,0.509-0.5h4.075C5.867,8.5,6.094,8.724,6.094,9L6.094,9z"/>
<circle fill-rule="evenodd" clip-rule="evenodd" cx="1.833" cy="7" r="0.583"/>
<polyline fill-rule="evenodd" clip-rule="evenodd" fill="none" stroke="#000000" stroke-linecap="round" stroke-linejoin="round" stroke-miterlimit="10" points="
	19.979,8.496 18.763,10.034 20.236,11.187 "/>
<polyline fill-rule="evenodd" clip-rule="evenodd" fill="none" stroke="#000000" stroke-linecap="round" stroke-linejoin="round" stroke-miterlimit="10" points="
	16.519,10.313 18.15,11.398 17.108,12.946 "/>
<path fill-rule="evenodd" clip-rule="evenodd" fill="none" stroke="#000000" stroke-miterlimit="10" d="M22.417,10.736
	c0,2.3-1.864,4.163-4.162,4.163s-4.162-1.863-4.162-4.163c0-2.296,1.864-4.161,4.162-4.161S22.417,8.44,22.417,10.736z"/>
<path fill-rule="evenodd" clip-rule="evenodd" fill="none" stroke="#000000" stroke-miterlimit="10" d="M18.713,6.703V3.438
	c0,0,0.32-1.601-2.05-1.601H7.06c0,0-1.344,0.064-1.344,1.793v5.763c0,0,0.128,1.28,1.665,1.28h6.402"/>
<path fill-rule="evenodd" clip-rule="evenodd" fill="none" stroke="#000000" stroke-miterlimit="10" d="M14.487,12.979
	c0,0.352-0.287,0.64-0.64,0.64H9.749c-0.353,0-0.64-0.288-0.64-0.64l0,0c0-0.353,0.287-0.64,0.64-0.64h4.099
	C14.2,12.339,14.487,12.626,14.487,12.979L14.487,12.979z"/>
<rect x="11.03" y="10.865" fill-rule="evenodd" clip-rule="evenodd" fill="none" stroke="#000000" stroke-miterlimit="10" width="1.537" height="1.346"/>
<circle fill-rule="evenodd" clip-rule="evenodd" cx="7.813" cy="4.25" r="0.563"/>
<circle fill-rule="evenodd" clip-rule="evenodd" cx="9.813" cy="4.25" r="0.563"/>
<circle fill-rule="evenodd" clip-rule="evenodd" cx="11.813" cy="4.25" r="0.563"/>
</svg>
