<?xml version="1.0" encoding="utf-8"?>
<!-- Generator: Adobe Illustrator 16.0.0, SVG Export Plug-In . SVG Version: 6.00 Build 0)  -->
<!DOCTYPE svg PUBLIC "-//W3C//DTD SVG 1.1//EN" "http://www.w3.org/Graphics/SVG/1.1/DTD/svg11.dtd">
<svg version="1.1" id="圖層_1" xmlns="http://www.w3.org/2000/svg" xmlns:xlink="http://www.w3.org/1999/xlink" x="0px" y="0px"
	 width="585px" height="494px" viewBox="0 0 585 494" enable-background="new 0 0 585 494" xml:space="preserve">
<g>
	<g>
		<g>
			<path fill="#FFFFFF" d="M396.611,192.096h-214.28c-7.622,0-13.857-6.236-13.857-13.857V18.989c0-4.615,3.775-8.389,8.389-8.389
				H402.08c4.615,0,8.39,3.774,8.39,8.389v159.25C410.47,185.859,404.233,192.096,396.611,192.096z"/>
		</g>
		<g>
			<path fill="#3B3B3A" d="M388.675,193.872H190.268c-12.995,0-23.569-10.574-23.569-23.569V23.793
				c0-8.253,6.715-14.968,14.97-14.968h215.607c8.254,0,14.969,6.715,14.969,14.968v146.509
				C412.244,183.298,401.672,193.872,388.675,193.872z M181.668,12.375c-6.296,0-11.419,5.123-11.419,11.418v146.509
				c0,11.038,8.98,20.019,20.018,20.019h198.407c11.038,0,20.018-8.98,20.018-20.019V23.793c0-6.295-5.12-11.418-11.417-11.418
				H181.668z"/>
		</g>
	</g>
	<g>
		<g>
			<line fill="#FFFFFF" x1="168.474" y1="165.617" x2="410.47" y2="165.617"/>
		</g>
		<g>
			<rect x="168.474" y="163.842" fill="#3B3B3A" width="241.996" height="3.55"/>
		</g>
	</g>
	<g>
		<g>
			<circle fill="#FFFFFF" cx="289.472" cy="179.934" r="5.492"/>
		</g>
		<g>
			<path fill="#3B3B3A" d="M289.472,187.2c-4.009,0-7.268-3.258-7.268-7.265c0-4.008,3.259-7.267,7.268-7.267
				c4.008,0,7.266,3.259,7.266,7.267C296.738,183.941,293.48,187.2,289.472,187.2z M289.472,176.218
				c-2.05,0-3.717,1.667-3.717,3.717c0,2.048,1.667,3.715,3.717,3.715c2.049,0,3.717-1.667,3.717-3.715
				C293.189,177.884,291.521,176.218,289.472,176.218z"/>
		</g>
	</g>
	<g>
		<g>
			<rect x="245.752" y="225.347" fill="#FFFFFF" width="87.745" height="9.544"/>
		</g>
		<g>
			<path fill="#3B3B3A" d="M333.497,236.666h-87.744c-0.98,0-1.775-0.795-1.775-1.775v-9.544c0-0.98,0.795-1.776,1.775-1.776h87.744
				c0.98,0,1.778,0.795,1.778,1.776v9.544C335.275,235.871,334.478,236.666,333.497,236.666z M247.527,233.115h84.196v-5.994
				h-84.196V233.115z"/>
		</g>
	</g>
	<g>
		<g>
			<rect x="103.399" y="388.168" fill="#FFC600" width="127.327" height="19.316"/>
		</g>
		<g>
			<path fill="#3B3B3A" d="M230.725,409.26H103.398c-0.979,0-1.775-0.793-1.775-1.773v-19.318c0-0.982,0.795-1.775,1.775-1.775
				h127.327c0.98,0,1.775,0.793,1.775,1.775v19.318C232.5,408.467,231.706,409.26,230.725,409.26z M105.174,405.709H228.95v-15.766
				H105.174V405.709z"/>
		</g>
	</g>
	<g>
		<g>
			<rect x="107.208" y="407.484" fill="#FFC600" width="119.709" height="75.906"/>
		</g>
		<g>
			<path fill="#3B3B3A" d="M226.916,485.166H107.208c-0.98,0-1.775-0.795-1.775-1.775v-75.904c0-0.98,0.795-1.777,1.775-1.777
				h119.708c0.98,0,1.775,0.797,1.775,1.777v75.904C228.691,484.371,227.896,485.166,226.916,485.166z M108.983,481.615h116.157
				V409.26H108.983V481.615z"/>
		</g>
	</g>
	<g>
		<g>
			<rect x="145.025" y="420.285" fill="#FFFFFF" width="44.075" height="22.311"/>
		</g>
		<g>
			<path fill="#3B3B3A" d="M189.1,444.371h-44.074c-0.98,0-1.776-0.795-1.776-1.775v-22.311c0-0.979,0.795-1.775,1.776-1.775H189.1
				c0.98,0,1.776,0.797,1.776,1.775v22.311C190.876,443.576,190.081,444.371,189.1,444.371z M146.8,440.82h40.525v-18.76H146.8
				V440.82z"/>
		</g>
	</g>
	<g>
		<g>
			<rect x="153.085" y="426.807" fill="#FFFFFF" width="27.955" height="9.268"/>
		</g>
		<g>
			<path fill="#3B3B3A" d="M181.04,437.85h-27.954c-0.981,0-1.775-0.795-1.775-1.775v-9.268c0-0.98,0.794-1.773,1.775-1.773h27.954
				c0.98,0,1.775,0.793,1.775,1.773v9.268C182.815,437.055,182.02,437.85,181.04,437.85z M154.862,434.299h24.403v-5.717h-24.403
				V434.299z"/>
		</g>
	</g>
	<g>
		<g>
			<rect x="122.904" y="293.018" fill="#FFC600" width="127.327" height="19.316"/>
		</g>
		<g>
			<path fill="#3B3B3A" d="M250.23,314.107H122.904c-0.98,0-1.775-0.793-1.775-1.773v-19.316c0-0.98,0.795-1.775,1.775-1.775H250.23
				c0.98,0,1.775,0.795,1.775,1.775v19.316C252.005,313.314,251.21,314.107,250.23,314.107z M124.679,310.559h123.777v-15.766
				H124.679V310.559z"/>
		</g>
	</g>
	<g>
		<g>
			<rect x="126.713" y="312.334" fill="#FFC600" width="119.709" height="75.906"/>
		</g>
		<g>
			<path fill="#3B3B3A" d="M246.42,390.018H126.714c-0.98,0-1.776-0.797-1.776-1.777v-75.906c0-0.98,0.795-1.775,1.776-1.775H246.42
				c0.981,0,1.775,0.795,1.775,1.775v75.906C248.196,389.221,247.401,390.018,246.42,390.018z M128.488,386.467h116.157v-72.359
				H128.488V386.467z"/>
		</g>
	</g>
	<g>
		<g>
			<rect x="164.53" y="325.135" fill="#FFFFFF" width="44.074" height="22.311"/>
		</g>
		<g>
			<path fill="#3B3B3A" d="M208.605,349.221h-44.074c-0.981,0-1.776-0.795-1.776-1.775v-22.311c0-0.98,0.795-1.775,1.776-1.775
				h44.074c0.98,0,1.776,0.795,1.776,1.775v22.311C210.381,348.426,209.585,349.221,208.605,349.221z M166.306,345.67h40.524v-18.76
				h-40.524V345.67z"/>
		</g>
	</g>
	<g>
		<g>
			<rect x="172.59" y="331.656" fill="#FFFFFF" width="27.955" height="9.268"/>
		</g>
		<g>
			<path fill="#3B3B3A" d="M200.545,342.701h-27.954c-0.979,0-1.775-0.797-1.775-1.775v-9.27c0-0.98,0.796-1.775,1.775-1.775h27.954
				c0.98,0,1.775,0.795,1.775,1.775v9.27C202.32,341.904,201.525,342.701,200.545,342.701z M174.367,339.15h24.403v-5.719h-24.403
				V339.15z"/>
		</g>
	</g>
	<g>
		<g>
			<g>
				<rect x="10.259" y="235.105" fill="#FFFFFF" width="558.426" height="20.262"/>
			</g>
			<g>
				<path fill="#3B3B3A" d="M568.685,257.139H10.258c-0.98,0-1.776-0.793-1.776-1.773v-20.259c0-0.98,0.795-1.776,1.776-1.776
					h558.426c0.979,0,1.774,0.795,1.774,1.776v20.259C570.459,256.346,569.663,257.139,568.685,257.139z M12.033,253.588h554.875
					V236.88H12.033V253.588z"/>
			</g>
		</g>
		<g>
			<g>
				<line fill="#FFFFFF" x1="38.75" y1="257.896" x2="540.193" y2="257.896"/>
			</g>
			<g>
				<rect x="38.75" y="256.121" fill="#3B3B3A" width="501.443" height="3.551"/>
			</g>
		</g>
		<g>
			<g>
				<line fill="#848484" x1="67.874" y1="259.164" x2="67.874" y2="475.697"/>
			</g>
			<g>
				<rect x="66.098" y="259.164" fill="#848484" width="3.552" height="216.533"/>
			</g>
		</g>
		<g>
			<g>
				<line fill="#848484" x1="88.134" y1="259.164" x2="67.874" y2="475.697"/>
			</g>
			<g>
				
					<rect x="76.229" y="258.692" transform="matrix(0.9956 0.094 -0.094 0.9956 34.8954 -5.7068)" fill="#848484" width="3.552" height="217.479"/>
			</g>
		</g>
		<g>
			<g>
				<line fill="#848484" x1="106.496" y1="259.164" x2="67.874" y2="475.697"/>
			</g>
			<g>
				
					<rect x="85.41" y="257.455" transform="matrix(0.9844 0.176 -0.176 0.9844 66.0397 -9.6096)" fill="#848484" width="3.551" height="219.951"/>
			</g>
		</g>
		<g>
			<g>
				<path fill="#FFFFFF" d="M74.684,483.391c0-3.672-3.049-6.646-6.81-6.646c-3.761,0-6.81,2.975-6.81,6.646H74.684z"/>
			</g>
			<g>
				<path fill="#3B3B3A" d="M74.684,485.166h-13.62c-0.98,0-1.776-0.795-1.776-1.775c0-4.643,3.851-8.424,8.585-8.424
					s8.585,3.781,8.585,8.424C76.459,484.371,75.664,485.166,74.684,485.166z M63.186,481.615h9.375
					c-0.735-1.811-2.559-3.098-4.688-3.098S63.921,479.805,63.186,481.615z"/>
			</g>
		</g>
		<g>
			<g>
				<path fill="#FFFFFF" d="M520.52,483.391c0-3.672-3.05-6.646-6.812-6.646c-3.761,0-6.809,2.975-6.809,6.646H520.52z"/>
			</g>
			<g>
				<path fill="#3B3B3A" d="M520.518,485.166h-13.618c-0.98,0-1.774-0.795-1.774-1.775c0-4.643,3.85-8.424,8.585-8.424
					c4.73,0,8.581,3.781,8.581,8.424C522.291,484.371,521.498,485.166,520.518,485.166z M509.021,481.615h9.374
					c-0.733-1.811-2.556-3.098-4.686-3.098C511.579,478.518,509.754,479.805,509.021,481.615z"/>
			</g>
		</g>
		<g>
			<g>
				<line fill="#848484" x1="513.708" y1="259.164" x2="513.708" y2="475.697"/>
			</g>
			<g>
				<rect x="511.935" y="259.164" fill="#848484" width="3.55" height="216.533"/>
			</g>
		</g>
		<g>
			<g>
				<line fill="#848484" x1="493.448" y1="259.164" x2="513.708" y2="475.697"/>
			</g>
			<g>
				
					<rect x="394.839" y="365.655" transform="matrix(0.0932 0.9957 -0.9957 0.0932 822.4989 -168.1877)" fill="#848484" width="217.481" height="3.554"/>
			</g>
		</g>
		<g>
			<g>
				<line fill="#848484" x1="475.088" y1="259.164" x2="513.708" y2="475.697"/>
			</g>
			<g>
				
					<rect x="384.422" y="365.655" transform="matrix(0.1756 0.9845 -0.9845 0.1756 769.3076 -183.8044)" fill="#848484" width="219.953" height="3.552"/>
			</g>
		</g>
	</g>
	<g>
		<g>
			<g>
				<path fill="#FFFFFF" d="M53.942,197.376c0,0-7.869-34.972-34.973-46.557c0,0,21.957,18.371,29.071,46.557H53.942z"/>
			</g>
			<g>
				<path fill="#3B3B3A" d="M53.942,198.559h-5.901c-0.543,0-1.015-0.367-1.146-0.894c-6.941-27.494-28.468-45.756-28.685-45.936
					c-0.448-0.377-0.555-1.026-0.248-1.528c0.306-0.503,0.939-0.7,1.473-0.469c27.344,11.688,35.582,47.03,35.664,47.385
					c0.078,0.35-0.007,0.717-0.231,0.999C54.642,198.395,54.303,198.559,53.942,198.559z M48.956,196.192h3.456
					c-1.635-5.896-8.846-28.374-26.571-40.285C32.869,163.477,44.065,177.769,48.956,196.192z"/>
			</g>
		</g>
		<g>
			<g>
				<path fill="#FFFFFF" d="M50.33,197.376c0,0-4.524-15.227-20.698-21.931c0,0,13.551,11.658,15.154,21.931H50.33z"/>
			</g>
			<g>
				<path fill="#3B3B3A" d="M50.329,198.559h-5.543c-0.582,0-1.08-0.425-1.169-1.001c-1.517-9.721-14.625-21.103-14.757-21.215
					c-0.442-0.38-0.541-1.022-0.236-1.517c0.306-0.499,0.922-0.693,1.461-0.474c16.505,6.841,21.188,22.043,21.379,22.687
					c0.107,0.358,0.038,0.747-0.187,1.044C51.055,198.384,50.704,198.559,50.329,198.559z M45.766,196.192h2.861
					c-1.251-3.038-4.732-10.025-12.003-15.432C40.327,184.925,44.534,190.642,45.766,196.192z"/>
			</g>
		</g>
		<g>
			<g>
				<path fill="#FFFFFF" d="M53.942,197.376c0,0-3.183-37.667-32.908-63.314c0,0,20.109,22.586,27.006,63.314H53.942z"/>
			</g>
			<g>
				<path fill="#3B3B3A" d="M53.942,198.559h-5.901c-0.578,0-1.071-0.416-1.167-0.987c-6.754-39.881-26.525-62.501-26.725-62.725
					c-0.414-0.464-0.396-1.171,0.042-1.615c0.438-0.449,1.146-0.474,1.615-0.067c29.75,25.666,33.283,63.73,33.315,64.112
					c0.027,0.33-0.083,0.656-0.308,0.899C54.588,198.42,54.272,198.559,53.942,198.559z M49.037,196.192h3.576
					c-0.769-5.811-4.935-30.251-22.492-51.215C36.506,155.52,44.947,172.933,49.037,196.192z"/>
			</g>
		</g>
		<g>
			<g>
				<path fill="#FFFFFF" d="M52.509,197.376c0,0-6.703-65.5-20.837-89.543c0,0,10.734,77.084,16.369,89.543H52.509z"/>
			</g>
			<g>
				<path fill="#3B3B3A" d="M52.509,198.559h-4.468c-0.464,0-0.888-0.273-1.078-0.695c-5.642-12.469-16.023-86.713-16.463-89.868
					c-0.078-0.559,0.25-1.095,0.784-1.281c0.527-0.188,1.121,0.03,1.407,0.518c14.104,23.989,20.719,87.336,20.994,90.022
					c0.035,0.333-0.073,0.666-0.297,0.914C53.163,198.419,52.844,198.559,52.509,198.559z M48.827,196.192h2.362
					c-0.945-8.513-6.644-56.439-17.307-81.265C36.649,133.983,44.296,184.733,48.827,196.192z"/>
			</g>
		</g>
		<g>
			<g>
				<path fill="#FFFFFF" d="M54.816,197.376c0,0-3.765-67.686-11.196-84.589c0,0,2.719,72.13,5.294,84.589H54.816z"/>
			</g>
			<g>
				<path fill="#3B3B3A" d="M54.816,198.559h-5.901c-0.562,0-1.045-0.396-1.158-0.943c-2.566-12.411-5.208-81.835-5.318-84.784
					c-0.021-0.568,0.364-1.071,0.917-1.198c0.567-0.131,1.122,0.158,1.35,0.677c7.433,16.905,11.139,82.225,11.292,85
					c0.019,0.324-0.098,0.643-0.321,0.878C55.451,198.425,55.142,198.559,54.816,198.559z M49.897,196.192h3.664
					c-0.483-8.007-3.329-52.332-8.387-74.269C45.979,141.169,47.974,184.882,49.897,196.192z"/>
			</g>
		</g>
		<g>
			<g>
				<polygon fill="#FFFFFF" points="65.724,234.097 40.15,234.097 35.779,197.376 70.096,197.376 				"/>
			</g>
			<g>
				<path fill="#3B3B3A" d="M65.725,235.873H40.151c-0.899,0-1.658-0.673-1.764-1.565l-4.374-36.722
					c-0.06-0.503,0.099-1.01,0.437-1.389c0.335-0.379,0.819-0.596,1.327-0.596h34.318c0.506,0,0.991,0.217,1.326,0.596
					c0.338,0.379,0.498,0.886,0.437,1.389l-4.371,36.722C67.381,235.2,66.623,235.873,65.725,235.873z M41.728,232.322h22.42
					l3.948-33.171H37.777L41.728,232.322z"/>
			</g>
		</g>
		<g>
			<g>
				<path fill="#FFFFFF" d="M54.674,197.376c0,0,7.869-34.972,34.973-46.557c0,0-21.957,18.371-29.071,46.557H54.674z"/>
			</g>
			<g>
				<path fill="#3B3B3A" d="M60.574,198.559h-5.902c-0.36,0-0.701-0.164-0.924-0.444c-0.225-0.282-0.31-0.649-0.231-0.999
					c0.081-0.355,8.319-35.697,35.665-47.385c0.529-0.231,1.165-0.034,1.473,0.469c0.306,0.502,0.2,1.151-0.248,1.528
					c-0.218,0.18-21.752,18.47-28.687,45.936C61.589,198.192,61.117,198.559,60.574,198.559z M56.203,196.192h3.455
					c4.892-18.423,16.088-32.715,23.119-40.285C65.049,167.818,57.836,190.295,56.203,196.192z"/>
			</g>
		</g>
		<g>
			<g>
				<path fill="#FFFFFF" d="M51.735,197.376c0,0-4.809-76.501,4.153-103.823c0,0,5.245,83.277,0.218,103.823H51.735z"/>
			</g>
			<g>
				<path fill="#3B3B3A" d="M56.106,198.559h-4.372c-0.625,0-1.142-0.485-1.181-1.109c-0.197-3.133-4.72-77.041,4.212-104.266
					c0.173-0.539,0.686-0.875,1.273-0.806c0.562,0.072,0.997,0.534,1.031,1.1c0.216,3.408,5.199,83.694,0.185,104.178
					C57.125,198.188,56.651,198.559,56.106,198.559z M52.851,196.192h2.312c3.735-17.609,1.105-74.25-0.016-94.926
					C49.389,130.167,52.356,187.502,52.851,196.192z"/>
			</g>
		</g>
		<g>
			<g>
				<path fill="#FFFFFF" d="M58.285,197.376c0,0,4.524-15.227,20.699-21.931c0,0-13.551,11.658-15.155,21.931H58.285z"/>
			</g>
			<g>
				<path fill="#3B3B3A" d="M63.828,198.559h-5.543c-0.374,0-0.726-0.175-0.947-0.476c-0.224-0.298-0.293-0.687-0.188-1.044
					c0.192-0.643,4.876-15.846,21.381-22.687c0.541-0.217,1.156-0.023,1.46,0.474c0.306,0.495,0.206,1.137-0.235,1.517
					c-0.132,0.113-13.24,11.495-14.757,21.215C64.908,198.134,64.411,198.559,63.828,198.559z M59.987,196.192h2.862
					c1.234-5.55,5.441-11.267,9.145-15.435C64.719,186.165,61.238,193.153,59.987,196.192z"/>
			</g>
		</g>
		<g>
			<g>
				<path fill="#FFFFFF" d="M54.674,197.376c0,0,3.181-37.667,32.908-63.314c0,0-20.109,22.586-27.006,63.314H54.674z"/>
			</g>
			<g>
				<path fill="#3B3B3A" d="M60.574,198.559h-5.902c-0.33,0-0.647-0.139-0.871-0.383c-0.225-0.243-0.336-0.569-0.309-0.899
					c0.033-0.382,3.567-38.447,33.315-64.112c0.467-0.407,1.174-0.384,1.616,0.067c0.437,0.444,0.456,1.151,0.042,1.615
					c-0.2,0.224-19.97,22.844-26.725,62.725C61.645,198.143,61.152,198.559,60.574,198.559z M56.001,196.192h3.576
					c4.091-23.264,12.536-40.679,18.92-51.223C60.921,165.945,56.767,190.381,56.001,196.192z"/>
			</g>
		</g>
		<g>
			<g>
				<path fill="#FFFFFF" d="M56.106,197.376c0,0,6.703-65.5,20.837-89.543c0,0-10.734,77.084-16.368,89.543H56.106z"/>
			</g>
			<g>
				<path fill="#3B3B3A" d="M60.574,198.559h-4.468c-0.335,0-0.655-0.14-0.879-0.39c-0.224-0.248-0.333-0.581-0.298-0.914
					c0.275-2.686,6.891-66.033,20.996-90.022c0.285-0.488,0.878-0.706,1.408-0.518c0.534,0.186,0.862,0.722,0.784,1.281
					c-0.44,3.154-10.824,77.399-16.466,89.868C61.462,198.286,61.039,198.559,60.574,198.559z M57.426,196.192h2.362
					c4.53-11.458,12.177-62.211,14.947-81.267C64.069,139.752,58.371,187.679,57.426,196.192z"/>
			</g>
		</g>
		<g>
			<g>
				<path fill="#FFFFFF" d="M53.799,197.376c0,0,3.764-67.686,11.196-84.589c0,0-2.719,72.13-5.294,84.589H53.799z"/>
			</g>
			<g>
				<path fill="#3B3B3A" d="M59.7,198.559h-5.9c-0.327,0-0.637-0.134-0.861-0.37s-0.339-0.555-0.321-0.878
					c0.155-2.774,3.863-68.095,11.295-85c0.229-0.519,0.786-0.805,1.35-0.677c0.553,0.127,0.938,0.629,0.917,1.198
					c-0.111,2.948-2.755,72.373-5.32,84.784C60.745,198.164,60.262,198.559,59.7,198.559z M55.054,196.192h3.664
					c1.922-11.308,3.918-55.021,4.725-74.267C58.384,143.863,55.538,188.185,55.054,196.192z"/>
			</g>
		</g>
	</g>
	<g>
		<g>
			<rect x="180.623" y="23.284" fill="#FFC600" width="218.005" height="129.321"/>
		</g>
		<g>
			<path fill="#3B3B3A" d="M398.628,154.38H180.622c-0.98,0-1.776-0.794-1.776-1.775V23.284c0-0.98,0.796-1.775,1.776-1.775h218.006
				c0.98,0,1.774,0.795,1.774,1.775v129.321C400.402,153.585,399.608,154.38,398.628,154.38z M182.396,150.83h214.456V25.059
				H182.396V150.83z"/>
		</g>
	</g>
	<g>
		<g>
			<polygon fill="#FFFFFF" points="259.299,225.347 263.302,192.096 316.568,192.096 320.57,225.347 			"/>
		</g>
		<g>
			<path fill="#3B3B3A" d="M320.57,227.121h-61.272c-0.508,0-0.991-0.217-1.329-0.596c-0.335-0.382-0.495-0.888-0.432-1.391
				l4.003-33.25c0.107-0.892,0.862-1.563,1.762-1.563h53.266c0.899,0,1.653,0.67,1.762,1.563l4.004,33.25
				c0.063,0.503-0.098,1.009-0.434,1.391C321.564,226.904,321.081,227.121,320.57,227.121z M261.301,223.57h57.269l-3.574-29.699
				h-50.119L261.301,223.57z"/>
		</g>
	</g>
	<g>
		<g>
			<polygon fill="#FFFFFF" points="442.241,234.411 425.103,234.411 420.863,213.385 446.482,213.385 			"/>
		</g>
		<g>
			<path fill="#3B3B3A" d="M442.241,236.185h-17.137c-0.846,0-1.575-0.597-1.74-1.424l-4.243-21.024
				c-0.103-0.521,0.03-1.063,0.368-1.474c0.337-0.414,0.842-0.653,1.372-0.653h25.621c0.532,0,1.034,0.239,1.372,0.653
				c0.337,0.412,0.472,0.953,0.369,1.474l-4.239,21.024C443.816,235.588,443.089,236.185,442.241,236.185z M426.558,232.634h14.23
				l3.524-17.473h-21.283L426.558,232.634z"/>
		</g>
	</g>
	<g>
		<g>
			<path fill="#FFFFFF" d="M432.103,141.566v-3.709c0-0.765,0.526-1.384,1.174-1.384h0.793c0.647,0,1.174,0.619,1.174,1.384v3.709"
				/>
		</g>
		<g>
			<path fill="#3B3B3A" d="M436.429,141.567h-2.367v-3.71l-0.786-0.202l0.009,3.912h-2.367v-3.71c0-1.417,1.059-2.569,2.358-2.569
				h0.794c1.302,0,2.359,1.152,2.359,2.569V141.567z"/>
		</g>
	</g>
	<g>
		<g>
			<rect x="97.56" y="188.646" fill="#FFFFFF" width="38.571" height="45.766"/>
		</g>
		<g>
			<path fill="#3B3B3A" d="M136.131,236.185H97.56c-0.98,0-1.776-0.795-1.776-1.775v-45.765c0-0.979,0.795-1.775,1.776-1.775h38.571
				c0.979,0,1.775,0.795,1.775,1.775v45.765C137.906,235.39,137.11,236.185,136.131,236.185z M99.334,232.634h35.021V190.42H99.334
				V232.634z"/>
		</g>
	</g>
	<g>
		<g>
			<path fill="#3B3B3A" d="M136.131,223.895v-3.551c6.193,0,9.549-1.405,9.549-8.817c0-7.411-3.356-8.816-9.549-8.816v-3.551
				c6.098,0,13.1,1.406,13.1,12.367C149.23,222.489,142.229,223.895,136.131,223.895z"/>
		</g>
	</g>
	<g>
		<g>
			<line fill="#FFFFFF" x1="116.845" y1="188.646" x2="116.845" y2="203.767"/>
		</g>
		<g>
			<rect x="115.07" y="188.645" fill="#3B3B3A" width="3.55" height="15.123"/>
		</g>
	</g>
	<g>
		<g>
			<rect x="112.049" y="203.767" fill="#FFC600" width="9.592" height="12.657"/>
		</g>
		<g>
			<path fill="#3B3B3A" d="M121.641,218.198h-9.592c-0.98,0-1.776-0.794-1.776-1.775v-12.656c0-0.98,0.795-1.775,1.776-1.775h9.592
				c0.98,0,1.776,0.795,1.776,1.775v12.656C123.417,217.404,122.622,218.198,121.641,218.198z M113.824,214.648h6.043v-9.105h-6.043
				V214.648z"/>
		</g>
	</g>
	<g>
		<g>
			<rect x="430.071" y="141.566" fill="#FFFFFF" width="7.203" height="71.818"/>
		</g>
		<g>
			<path fill="#3B3B3A" d="M437.274,215.162h-7.203c-0.98,0-1.774-0.795-1.774-1.776v-71.818c0-0.98,0.794-1.775,1.774-1.775h7.203
				c0.98,0,1.777,0.794,1.777,1.775v71.818C439.052,214.366,438.255,215.162,437.274,215.162z M431.846,211.61h3.654v-68.268h-3.654
				V211.61z"/>
		</g>
	</g>
	<g>
		<g>
			<polygon fill="#FFC600" points="525.321,233.979 495.839,233.979 488.544,180.234 532.618,180.234 			"/>
		</g>
		<g>
			<path fill="#3B3B3A" d="M525.321,235.753h-29.482c-0.89,0-1.638-0.657-1.76-1.538l-7.295-53.742
				c-0.07-0.506,0.086-1.02,0.422-1.405c0.337-0.386,0.825-0.608,1.338-0.608h44.074c0.513,0,1.001,0.222,1.335,0.608
				c0.337,0.386,0.492,0.899,0.424,1.405l-7.296,53.742C526.961,235.096,526.211,235.753,525.321,235.753z M497.39,232.202h26.383
				l6.814-50.191h-40.012L497.39,232.202z"/>
		</g>
	</g>
	<g>
		<g>
			<path fill="#FFFFFF" d="M495.1,131.818v-4.367c0-0.9,0.444-1.629,0.992-1.629h0.669c0.547,0,0.991,0.729,0.991,1.629v4.367"/>
		</g>
		<g>
			<path fill="#3B3B3A" d="M498.936,131.819h-2.365v-4.369c0-0.203-0.038-0.351-0.076-0.446h-0.137
				c-0.036,0.095-0.072,0.245-0.072,0.446v4.369h-2.367v-4.369c0-1.604,0.935-2.813,2.174-2.813h0.669
				c1.238,0,2.175,1.209,2.175,2.813V131.819z"/>
		</g>
	</g>
	<g>
		<g>
			<rect x="522.676" y="132.096" fill="#FFFFFF" width="5.087" height="48.139"/>
		</g>
		<g>
			<path fill="#3B3B3A" d="M527.765,181.419h-5.089c-0.655,0-1.184-0.529-1.184-1.185v-48.138c0-0.654,0.528-1.184,1.184-1.184
				h5.089c0.652,0,1.182,0.529,1.182,1.184v48.138C528.946,180.89,528.417,181.419,527.765,181.419z M523.86,179.052h2.721V133.28
				h-2.721V179.052z"/>
		</g>
	</g>
	<g>
		<g>
			<rect x="493.884" y="131.765" fill="#FFFFFF" width="5.085" height="48.138"/>
		</g>
		<g>
			<path fill="#3B3B3A" d="M498.969,181.086h-5.085c-0.654,0-1.186-0.529-1.186-1.184v-48.139c0-0.654,0.531-1.184,1.186-1.184
				h5.085c0.653,0,1.184,0.529,1.184,1.184v48.139C500.152,180.557,499.622,181.086,498.969,181.086z M495.065,178.719h2.719
				v-45.772h-2.719V178.719z"/>
		</g>
	</g>
	<g>
		<g>
			<line fill="#FFFFFF" x1="522.676" y1="138.011" x2="527.763" y2="138.011"/>
		</g>
		<g>
			<rect x="522.676" y="136.828" fill="#3B3B3A" width="5.089" height="2.367"/>
		</g>
	</g>
	<g>
		<g>
			<g>
				<rect x="512.742" y="128.544" fill="#FFFFFF" width="5.087" height="51.69"/>
			</g>
			<g>
				<path fill="#3B3B3A" d="M517.829,181.419h-5.089c-0.653,0-1.184-0.529-1.184-1.185v-51.691c0-0.655,0.53-1.184,1.184-1.184
					h5.089c0.653,0,1.184,0.529,1.184,1.184v51.691C519.013,180.89,518.482,181.419,517.829,181.419z M513.926,179.052h2.72v-49.325
					h-2.72V179.052z"/>
			</g>
		</g>
		<g>
			<g>
				<polygon fill="#FFFFFF" points="512.746,128.521 515.285,120.944 517.823,128.521 				"/>
			</g>
			<g>
				<path fill="#3B3B3A" d="M517.823,129.704h-5.075c-0.38,0-0.737-0.183-0.963-0.492c-0.221-0.31-0.281-0.705-0.158-1.069
					l2.539-7.574c0.316-0.966,1.923-0.966,2.24,0l2.54,7.574c0.122,0.364,0.061,0.759-0.159,1.069
					C518.561,129.521,518.205,129.704,517.823,129.704z M514.392,127.337h1.788l-0.893-2.667L514.392,127.337z"/>
			</g>
		</g>
	</g>
	<g>
		<g>
			<path fill="#3B3B3A" d="M502.875,150.904c-0.655,0-1.184-0.53-1.184-1.184v-14.782h-2.562c-0.653,0-1.184-0.53-1.184-1.184
				c0-0.654,0.53-1.183,1.184-1.183h3.745c0.653,0,1.184,0.529,1.184,1.183v15.966C504.059,150.374,503.528,150.904,502.875,150.904
				z"/>
		</g>
	</g>
	<g>
		<g>
			<polygon fill="#FFC600" points="143.79,130.158 118.761,130.158 118.761,95.417 153.501,95.417 153.501,120.197 			"/>
		</g>
		<g>
			<path fill="#3B3B3A" d="M143.789,131.933h-25.027c-0.98,0-1.775-0.795-1.775-1.776V95.417c0-0.98,0.795-1.775,1.775-1.775h34.741
				c0.979,0,1.775,0.795,1.775,1.775v24.779c0,0.464-0.181,0.909-0.504,1.239l-9.713,9.961
				C144.725,131.739,144.267,131.933,143.789,131.933z M120.537,128.382h22.503l8.687-8.907V97.192h-31.19V128.382z"/>
		</g>
	</g>
	<g>
		<g>
			<polygon fill="#FFFFFF" points="153.501,119.954 143.79,119.954 143.79,130.158 			"/>
		</g>
		<g>
			<path fill="#3B3B3A" d="M143.789,131.933c-0.222,0-0.446-0.042-0.659-0.127c-0.675-0.27-1.116-0.922-1.116-1.648v-10.203
				c0-0.98,0.795-1.775,1.775-1.775h9.714c0.709,0,1.352,0.423,1.632,1.077c0.279,0.652,0.143,1.409-0.347,1.923l-9.713,10.204
				C144.731,131.741,144.265,131.933,143.789,131.933z M145.564,121.729v3.987l3.798-3.987H145.564z"/>
		</g>
	</g>
	<g>
		<g>
			<line fill="#FFFFFF" x1="124.934" y1="102.097" x2="147.433" y2="102.097"/>
		</g>
		<g>
			<path fill="#3B3B3A" d="M147.433,103.874h-22.5c-0.979,0-1.774-0.795-1.774-1.775s0.795-1.776,1.774-1.776h22.5
				c0.981,0,1.776,0.796,1.776,1.776S148.414,103.874,147.433,103.874z"/>
		</g>
	</g>
	<g>
		<g>
			<line fill="#FFFFFF" x1="124.934" y1="107.838" x2="140.145" y2="107.838"/>
		</g>
		<g>
			<path fill="#3B3B3A" d="M140.146,109.613h-15.213c-0.979,0-1.774-0.795-1.774-1.776c0-0.979,0.795-1.775,1.774-1.775h15.213
				c0.979,0,1.775,0.795,1.775,1.775C141.921,108.818,141.125,109.613,140.146,109.613z"/>
		</g>
	</g>
	<g>
		<g>
			<line fill="#FFFFFF" x1="124.934" y1="113.579" x2="147.433" y2="113.579"/>
		</g>
		<g>
			<path fill="#3B3B3A" d="M147.433,115.354h-22.5c-0.979,0-1.774-0.795-1.774-1.776c0-0.979,0.795-1.775,1.774-1.775h22.5
				c0.981,0,1.776,0.795,1.776,1.775C149.209,114.559,148.414,115.354,147.433,115.354z"/>
		</g>
	</g>
	<g>
		<g>
			<polygon fill="#FFC600" points="463.345,93.478 438.313,93.478 438.313,58.738 473.055,58.738 473.055,83.518 			"/>
		</g>
		<g>
			<path fill="#3B3B3A" d="M463.341,95.254h-25.026c-0.98,0-1.773-0.795-1.773-1.776v-34.74c0-0.98,0.793-1.775,1.773-1.775h34.742
				c0.979,0,1.774,0.795,1.774,1.775v24.779c0,0.463-0.181,0.908-0.506,1.239l-9.711,9.961
				C464.279,95.061,463.819,95.254,463.341,95.254z M440.091,91.703h22.503l8.688-8.908V60.514h-31.19V91.703z"/>
		</g>
	</g>
	<g>
		<g>
			<polygon fill="#FFFFFF" points="473.055,83.274 463.345,83.274 463.345,93.478 			"/>
		</g>
		<g>
			<path fill="#3B3B3A" d="M463.341,95.254c-0.221,0-0.444-0.042-0.657-0.128c-0.675-0.269-1.117-0.921-1.117-1.648V83.275
				c0-0.98,0.796-1.775,1.774-1.775h9.716c0.708,0,1.353,0.423,1.632,1.076s0.143,1.409-0.348,1.923l-9.714,10.203
				C464.285,95.062,463.817,95.254,463.341,95.254z M465.117,85.051v3.988l3.799-3.988H465.117z"/>
		</g>
	</g>
	<g>
		<g>
			<line fill="#FFFFFF" x1="444.487" y1="65.418" x2="466.987" y2="65.418"/>
		</g>
		<g>
			<path fill="#3B3B3A" d="M466.987,67.193h-22.502c-0.979,0-1.774-0.795-1.774-1.775s0.796-1.776,1.774-1.776h22.502
				c0.98,0,1.776,0.796,1.776,1.776S467.968,67.193,466.987,67.193z"/>
		</g>
	</g>
	<g>
		<g>
			<line fill="#FFFFFF" x1="444.487" y1="71.159" x2="459.698" y2="71.159"/>
		</g>
		<g>
			<path fill="#3B3B3A" d="M459.698,72.934h-15.213c-0.979,0-1.774-0.795-1.774-1.775c0-0.98,0.796-1.776,1.774-1.776h15.213
				c0.982,0,1.776,0.795,1.776,1.776C461.475,72.138,460.681,72.934,459.698,72.934z"/>
		</g>
	</g>
	<g>
		<g>
			<line fill="#FFFFFF" x1="444.487" y1="76.899" x2="466.987" y2="76.899"/>
		</g>
		<g>
			<path fill="#3B3B3A" d="M466.987,78.675h-22.502c-0.979,0-1.774-0.795-1.774-1.776c0-0.979,0.796-1.775,1.774-1.775h22.502
				c0.98,0,1.776,0.795,1.776,1.775C468.764,77.879,467.968,78.675,466.987,78.675z"/>
		</g>
	</g>
	<g>
		<g>
			<rect x="78.769" y="46.541" fill="#FFFFFF" width="34.741" height="34.74"/>
		</g>
		<g>
			<path fill="#3B3B3A" d="M113.51,83.056H78.769c-0.98,0-1.776-0.795-1.776-1.774V46.541c0-0.98,0.795-1.776,1.776-1.776h34.741
				c0.979,0,1.774,0.795,1.774,1.776v34.741C115.284,82.261,114.489,83.056,113.51,83.056z M80.543,79.505h31.19V48.316h-31.19
				V79.505z"/>
		</g>
	</g>
	<g>
		<g>
			<line fill="#FFFFFF" x1="84.942" y1="53.22" x2="102.708" y2="53.22"/>
		</g>
		<g>
			<path fill="#3B3B3A" d="M102.708,54.996H84.942c-0.979,0-1.775-0.795-1.775-1.776c0-0.98,0.795-1.775,1.775-1.775h17.765
				c0.98,0,1.775,0.795,1.775,1.775C104.483,54.201,103.688,54.996,102.708,54.996z"/>
		</g>
	</g>
	<g>
		<g>
			<line fill="#FFFFFF" x1="84.942" y1="71.966" x2="102.708" y2="71.966"/>
		</g>
		<g>
			<path fill="#3B3B3A" d="M102.708,73.74H84.942c-0.979,0-1.775-0.795-1.775-1.775c0-0.979,0.795-1.775,1.775-1.775h17.765
				c0.98,0,1.775,0.795,1.775,1.775C104.483,72.945,103.688,73.74,102.708,73.74z"/>
		</g>
	</g>
	<g>
		<g>
			<line fill="#FFFFFF" x1="84.942" y1="58.961" x2="107.255" y2="58.961"/>
		</g>
		<g>
			<path fill="#3B3B3A" d="M107.254,60.735H84.942c-0.979,0-1.775-0.794-1.775-1.775s0.795-1.776,1.775-1.776h22.312
				c0.98,0,1.775,0.795,1.775,1.776S108.234,60.735,107.254,60.735z"/>
		</g>
	</g>
	<g>
		<g>
			<rect x="188.907" y="32.998" fill="#FFFFFF" width="8.256" height="110.758"/>
		</g>
		<g>
			<path fill="#3B3B3A" d="M197.162,145.531h-8.256c-0.98,0-1.775-0.795-1.775-1.774V32.998c0-0.98,0.795-1.775,1.775-1.775h8.256
				c0.981,0,1.777,0.795,1.777,1.775v110.759C198.939,144.736,198.144,145.531,197.162,145.531z M190.681,141.981h4.707V34.773
				h-4.707V141.981z"/>
		</g>
	</g>
	<g>
		<g>
			<rect x="380.314" y="33.057" fill="#FFFFFF" width="9.913" height="9.912"/>
		</g>
		<g>
			<path fill="#3B3B3A" d="M390.228,44.745h-9.913c-0.98,0-1.774-0.795-1.774-1.776v-9.912c0-0.98,0.794-1.775,1.774-1.775h9.913
				c0.979,0,1.774,0.794,1.774,1.775v9.912C392.002,43.949,391.206,44.745,390.228,44.745z M382.091,41.193h6.361v-6.361h-6.361
				V41.193z"/>
		</g>
	</g>
	<g>
		<g>
			<rect x="380.314" y="49.627" fill="#FFFFFF" width="9.913" height="9.913"/>
		</g>
		<g>
			<path fill="#3B3B3A" d="M390.228,61.315h-9.913c-0.98,0-1.774-0.795-1.774-1.775v-9.913c0-0.979,0.794-1.775,1.774-1.775h9.913
				c0.979,0,1.774,0.795,1.774,1.775v9.913C392.002,60.52,391.206,61.315,390.228,61.315z M382.091,57.764h6.361v-6.361h-6.361
				V57.764z"/>
		</g>
	</g>
	<g>
		<g>
			<rect x="380.314" y="66.197" fill="#FFFFFF" width="9.913" height="9.913"/>
		</g>
		<g>
			<path fill="#3B3B3A" d="M390.228,77.885h-9.913c-0.98,0-1.774-0.795-1.774-1.775v-9.913c0-0.979,0.794-1.774,1.774-1.774h9.913
				c0.979,0,1.774,0.795,1.774,1.774v9.913C392.002,77.09,391.206,77.885,390.228,77.885z M382.091,74.335h6.361v-6.362h-6.361
				V74.335z"/>
		</g>
	</g>
	<g>
		<g>
			<rect x="380.314" y="82.769" fill="#FFFFFF" width="9.913" height="9.912"/>
		</g>
		<g>
			<path fill="#3B3B3A" d="M390.228,94.456h-9.913c-0.98,0-1.774-0.795-1.774-1.775v-9.912c0-0.98,0.794-1.775,1.774-1.775h9.913
				c0.979,0,1.774,0.795,1.774,1.775v9.912C392.002,93.661,391.206,94.456,390.228,94.456z M382.091,90.905h6.361v-6.361h-6.361
				V90.905z"/>
		</g>
	</g>
	<g>
		<g>
			<rect x="380.314" y="99.339" fill="#FFFFFF" width="9.913" height="9.912"/>
		</g>
		<g>
			<path fill="#3B3B3A" d="M390.228,111.026h-9.913c-0.98,0-1.774-0.795-1.774-1.775v-9.913c0-0.98,0.794-1.775,1.774-1.775h9.913
				c0.979,0,1.774,0.795,1.774,1.775v9.913C392.002,110.231,391.206,111.026,390.228,111.026z M382.091,107.476h6.361v-6.361h-6.361
				V107.476z"/>
		</g>
	</g>
	<g>
		<g>
			<rect x="380.314" y="115.91" fill="#FFFFFF" width="9.913" height="9.912"/>
		</g>
		<g>
			<path fill="#3B3B3A" d="M390.228,127.596h-9.913c-0.98,0-1.774-0.795-1.774-1.776v-9.911c0-0.979,0.794-1.775,1.774-1.775h9.913
				c0.979,0,1.774,0.795,1.774,1.775v9.911C392.002,126.801,391.206,127.596,390.228,127.596z M382.091,124.045h6.361v-6.36h-6.361
				V124.045z"/>
		</g>
	</g>
	<g>
		<g>
			<rect x="380.314" y="132.48" fill="#FFFFFF" width="9.913" height="9.912"/>
		</g>
		<g>
			<path fill="#3B3B3A" d="M390.228,144.168h-9.913c-0.98,0-1.774-0.795-1.774-1.775v-9.912c0-0.98,0.794-1.776,1.774-1.776h9.913
				c0.979,0,1.774,0.795,1.774,1.776v9.912C392.002,143.373,391.206,144.168,390.228,144.168z M382.091,140.618h6.361v-6.362h-6.361
				V140.618z"/>
		</g>
	</g>
	<g>
		<g>
			<path fill="none" d="M286.817,105.099c0,14.462-11.724,26.185-26.186,26.185c-14.461,0-26.185-11.723-26.185-26.185
				s11.723-26.186,26.185-26.186c0,0,34.174,1.682,38.711-24.158"/>
		</g>
		<g>
			<path fill="#3B3B3A" d="M260.632,133.061c-15.418,0-27.96-12.544-27.96-27.962c0-15.418,12.542-27.961,27.96-27.961
				c0.173,0.009,8.506,0.369,17.219-2.337c11.348-3.525,17.993-10.374,19.745-20.354c0.167-0.964,1.083-1.608,2.054-1.44
				c0.968,0.169,1.611,1.089,1.44,2.056c-1.976,11.266-9.681,19.273-22.279,23.159c-9.302,2.866-17.906,2.484-18.267,2.465
				c-13.372,0.002-24.322,10.952-24.322,24.413s10.95,24.412,24.41,24.412c13.46,0,24.411-10.951,24.411-24.412
				c0-0.98,0.795-1.775,1.775-1.775c0.98,0,1.775,0.795,1.775,1.775C288.593,120.517,276.051,133.061,260.632,133.061z"/>
		</g>
	</g>
	<g>
		<g>
			<rect x="256.957" y="76.058" fill="#FFFFFF" width="5.721" height="5.72"/>
		</g>
		<g>
			<path fill="#3B3B3A" d="M262.678,82.963h-5.721c-0.654,0-1.184-0.529-1.184-1.185v-5.72c0-0.654,0.53-1.184,1.184-1.184h5.721
				c0.654,0,1.184,0.529,1.184,1.184v5.72C263.862,82.434,263.333,82.963,262.678,82.963z M258.14,80.596h3.354v-3.354h-3.354
				V80.596z"/>
		</g>
	</g>
	<g>
		<g>
			<rect x="256.957" y="128.424" fill="#FFFFFF" width="5.721" height="5.721"/>
		</g>
		<g>
			<path fill="#3B3B3A" d="M262.678,135.328h-5.721c-0.654,0-1.184-0.529-1.184-1.183v-5.721c0-0.654,0.53-1.184,1.184-1.184h5.721
				c0.654,0,1.184,0.53,1.184,1.184v5.721C263.862,134.798,263.333,135.328,262.678,135.328z M258.14,132.961h3.354v-3.354h-3.354
				V132.961z"/>
		</g>
	</g>
	<g>
		<g>
			<rect x="283.883" y="102.392" fill="#FFFFFF" width="5.719" height="5.721"/>
		</g>
		<g>
			<path fill="#3B3B3A" d="M289.604,109.296h-5.721c-0.654,0-1.184-0.529-1.184-1.184v-5.722c0-0.654,0.53-1.183,1.184-1.183h5.721
				c0.653,0,1.184,0.529,1.184,1.183v5.722C290.787,108.767,290.257,109.296,289.604,109.296z M285.066,106.929h3.354v-3.354h-3.354
				V106.929z"/>
		</g>
	</g>
	<g>
		<g>
			<rect x="231.511" y="102.392" fill="#FFFFFF" width="5.721" height="5.721"/>
		</g>
		<g>
			<path fill="#3B3B3A" d="M237.232,109.296h-5.721c-0.654,0-1.184-0.529-1.184-1.184v-5.722c0-0.654,0.529-1.183,1.184-1.183h5.721
				c0.654,0,1.184,0.529,1.184,1.183v5.722C238.416,108.767,237.887,109.296,237.232,109.296z M232.695,106.929h3.354v-3.354h-3.354
				V106.929z"/>
		</g>
	</g>
	<g>
		<g>
			<g>
				<polygon fill="#FFFFFF" points="352.006,70.515 349.059,59.321 327.652,51.623 335.352,73.029 346.38,76.143 				"/>
			</g>
			<g>
				<path fill="#3B3B3A" d="M346.378,77.326c-0.106,0-0.215-0.016-0.321-0.044l-11.028-3.112c-0.368-0.104-0.663-0.379-0.792-0.74
					l-7.697-21.407c-0.156-0.431-0.048-0.913,0.275-1.236c0.324-0.325,0.809-0.429,1.236-0.278l21.407,7.699
					c0.367,0.131,0.645,0.436,0.743,0.813l2.951,11.193c0.105,0.407-0.012,0.841-0.309,1.139l-5.628,5.627
					C346.991,77.205,346.689,77.326,346.378,77.326z M336.258,72.057l9.774,2.758l4.657-4.656l-2.618-9.936l-18.454-6.637
					L336.258,72.057z"/>
			</g>
		</g>
		<g>
			<g>
				
					<rect x="343.777" y="72.907" transform="matrix(0.707 -0.7072 0.7072 0.707 49.7912 270.0142)" fill="#FFFFFF" width="14.018" height="4.01"/>
			</g>
			<g>
				<path fill="#3B3B3A" d="M347.248,82.47L347.248,82.47c-0.315,0-0.615-0.125-0.838-0.347l-2.835-2.835
					c-0.46-0.462-0.46-1.211,0-1.674l9.913-9.913c0.225-0.222,0.522-0.346,0.838-0.346l0,0c0.313,0,0.613,0.125,0.836,0.346
					l2.833,2.836c0.464,0.462,0.464,1.211,0,1.674l-9.909,9.912C347.862,82.345,347.562,82.47,347.248,82.47z M346.087,78.451
					l1.161,1.162l8.239-8.239l-1.161-1.163L346.087,78.451z"/>
			</g>
		</g>
		<g>
			<g>
				<line fill="#FFFFFF" x1="327.652" y1="51.623" x2="339.647" y2="63.618"/>
			</g>
			<g>
				<path fill="#3B3B3A" d="M339.647,64.802c-0.304,0-0.608-0.115-0.836-0.347l-11.997-11.996c-0.462-0.462-0.462-1.211,0-1.674
					c0.463-0.463,1.212-0.463,1.676,0l11.993,11.996c0.464,0.462,0.464,1.211,0,1.674C340.252,64.687,339.95,64.802,339.647,64.802z
					"/>
			</g>
		</g>
		<g>
			<g>
				<circle fill="#FFFFFF" cx="339.869" cy="63.84" r="1.833"/>
			</g>
			<g>
				<path fill="#3B3B3A" d="M339.87,66.857c-0.808,0-1.564-0.314-2.136-0.884c-1.175-1.177-1.175-3.088,0-4.264
					c1.142-1.142,3.126-1.141,4.27-0.001c0.57,0.568,0.884,1.327,0.884,2.132c0,0.806-0.313,1.564-0.884,2.134
					C341.43,66.543,340.676,66.857,339.87,66.857z M339.87,63.19c-0.175,0-0.339,0.068-0.462,0.191
					c-0.251,0.253-0.251,0.664,0,0.918c0.247,0.245,0.677,0.245,0.922,0c0.121-0.124,0.189-0.286,0.189-0.459
					s-0.068-0.335-0.189-0.457C340.206,63.258,340.043,63.19,339.87,63.19z"/>
			</g>
		</g>
	</g>
	<g>
		<g>
			<line fill="#FFFFFF" x1="272.884" y1="62.495" x2="324.125" y2="46.67"/>
		</g>
		<g>
			<path fill="#3B3B3A" d="M272.884,63.678c-0.506,0-0.973-0.326-1.13-0.834c-0.194-0.625,0.157-1.289,0.781-1.479l51.241-15.825
				c0.624-0.189,1.287,0.157,1.479,0.781c0.196,0.624-0.155,1.288-0.779,1.479l-51.242,15.825
				C273.118,63.661,273,63.678,272.884,63.678z"/>
		</g>
	</g>
	<g>
		<g>
			<rect x="295.643" y="51.722" fill="#FFFFFF" width="5.723" height="5.72"/>
		</g>
		<g>
			<path fill="#3B3B3A" d="M301.365,58.626h-5.723c-0.654,0-1.182-0.529-1.182-1.184v-5.721c0-0.654,0.527-1.183,1.182-1.183h5.723
				c0.654,0,1.183,0.529,1.183,1.183v5.721C302.548,58.098,302.02,58.626,301.365,58.626z M296.828,56.259h3.354v-3.354h-3.354
				V56.259z"/>
		</g>
	</g>
</g>
</svg>
