<?xml version="1.0" encoding="utf-8"?>
<!-- Generator: Adobe Illustrator 16.0.0, SVG Export Plug-In . SVG Version: 6.00 Build 0)  -->
<!DOCTYPE svg PUBLIC "-//W3C//DTD SVG 1.1//EN" "http://www.w3.org/Graphics/SVG/1.1/DTD/svg11.dtd">
<svg version="1.1" id="圖層_1" xmlns="http://www.w3.org/2000/svg" xmlns:xlink="http://www.w3.org/1999/xlink" x="0px" y="0px"
	 width="24px" height="14.833px" viewBox="0 0 24 14.833" enable-background="new 0 0 24 14.833" xml:space="preserve">
<path d="M11.308,9.007c0,0.248-0.215,0.45-0.481,0.45H7.1c-0.266,0-0.481-0.202-0.481-0.45l0,0c0-0.249,0.215-0.45,0.481-0.45h3.727
	C11.093,8.557,11.308,8.758,11.308,9.007L11.308,9.007z"/>
<path d="M9.507,7.206c0,0.248-0.215,0.45-0.481,0.45h-2.05c-0.266,0-0.481-0.202-0.481-0.45l0,0c0-0.249,0.215-0.451,0.481-0.451
	h2.05C9.292,6.755,9.507,6.957,9.507,7.206L9.507,7.206z"/>
<circle cx="12.649" cy="9.006" r="0.525"/>
<path fill="none" stroke="#000000" stroke-miterlimit="10" d="M18.835,9.941c0,1.392-1.127,2.518-2.519,2.518H7.452
	c-1.391,0-2.518-1.126-2.518-2.518v-5.54c0-1.391,1.127-2.519,2.518-2.519h8.864c1.392,0,2.519,1.127,2.519,2.519V9.941z"/>
<line fill="none" stroke="#000000" stroke-miterlimit="10" x1="5.185" y1="5.292" x2="18.711" y2="5.292"/>
<path d="M7.491,3.796c0,0.344-0.279,0.624-0.624,0.624l0,0c-0.344,0-0.623-0.279-0.623-0.624l0,0c0-0.345,0.279-0.623,0.623-0.623
	l0,0C7.212,3.173,7.491,3.452,7.491,3.796L7.491,3.796z"/>
<path d="M9.166,3.796c0,0.344-0.279,0.624-0.623,0.624l0,0c-0.344,0-0.623-0.279-0.623-0.624l0,0c0-0.345,0.279-0.623,0.623-0.623
	l0,0C8.887,3.173,9.166,3.452,9.166,3.796L9.166,3.796z"/>
<path d="M10.842,3.796c0,0.344-0.279,0.624-0.624,0.624l0,0c-0.344,0-0.623-0.279-0.623-0.624l0,0c0-0.345,0.279-0.623,0.623-0.623
	l0,0C10.563,3.173,10.842,3.452,10.842,3.796L10.842,3.796z"/>
</svg>
